<svg xmlns="http://www.w3.org/2000/svg" width="502" height="137" viewBox="0 0 502 137" version="1.1"><path d="M 47.582 2.868 C 45.978 3.216, 44.454 4.134, 44.196 4.909 C 43.852 5.944, 44.228 6.118, 45.614 5.562 C 46.651 5.146, 51.118 4.566, 55.539 4.275 C 68.946 3.390, 73.789 7.186, 77.515 21.500 C 79.301 28.359, 83.131 33.885, 87 35.181 C 88.312 35.621, 88.279 36.288, 86.739 40.501 C 85.233 44.620, 85.174 45.621, 86.331 47.409 C 87.932 49.884, 89.145 54.261, 89.459 58.700 C 89.584 60.459, 90.880 63.465, 92.340 65.379 L 94.994 68.859 92.506 70.817 C 91.137 71.894, 87.088 73.808, 83.508 75.072 C 79.929 76.336, 77 77.962, 77 78.685 C 77 80.640, 79.023 80.313, 86.988 77.072 C 94.654 73.952, 98 71.578, 98 69.258 C 98 68.471, 96.668 65.953, 95.040 63.663 C 93.081 60.908, 92.118 58.385, 92.193 56.204 C 92.256 54.390, 91.788 52.388, 91.154 51.754 C 90.519 51.119, 90 49.602, 90 48.383 C 90 47.164, 89.498 45.999, 88.885 45.795 C 88.160 45.553, 88.510 44.042, 89.885 41.476 C 92.769 36.094, 92.553 34.296, 88.750 32.057 C 83.526 28.981, 82.089 27.011, 80 20.060 C 78.915 16.452, 77.126 12.033, 76.023 10.241 C 73.799 6.625, 68.189 2.737, 66.250 3.467 C 65.563 3.725, 65 3.501, 65 2.969 C 65 1.912, 52.336 1.839, 47.582 2.868 M 26.825 10.443 C 17.039 14.509, 6.333 22.630, 3.415 28.200 C 1.215 32.399, 1.745 40, 4.238 40 C 4.861 40, 5.026 38.546, 4.659 36.289 C 3.261 27.671, 15.957 15.825, 32.805 10.027 C 37.373 8.455, 37.906 8.069, 35.500 8.076 C 33.850 8.081, 29.946 9.146, 26.825 10.443 M 28.201 17.995 C 17.727 22.748, 10.116 32.473, 11.421 39.432 C 12.145 43.288, 14.284 45.489, 16.488 44.643 C 17.790 44.143, 17.712 43.509, 15.928 40.086 C 13.945 36.282, 13.928 35.955, 15.530 32.578 C 17.663 28.082, 23.519 22.784, 29.964 19.518 C 37.573 15.662, 36.116 14.403, 28.201 17.995 M 104.109 17.797 C 103.580 18.785, 102.706 24.351, 102.168 30.164 C 101.628 35.991, 100.473 42.119, 99.594 43.818 C 97.719 47.444, 97.593 48.370, 99.099 47.439 C 99.703 47.065, 100.850 45.351, 101.648 43.630 L 103.099 40.500 102.424 43.500 C 102.053 45.150, 101.730 47.063, 101.708 47.750 C 101.685 48.438, 101.292 49, 100.833 49 C 100.375 49, 100 49.505, 100 50.122 C 100 50.904, 100.451 50.871, 101.483 50.014 C 103.290 48.514, 104.518 44.282, 106.565 32.500 C 107.424 27.550, 108.774 22.193, 109.564 20.596 C 111.265 17.156, 111.286 17, 110.035 17 C 108.432 17, 106.652 21.136, 105.303 28 L 104.024 34.500 104.528 27.155 C 104.805 23.115, 105.490 18.952, 106.051 17.905 C 106.724 16.648, 106.730 16, 106.070 16 C 105.520 16, 104.638 16.809, 104.109 17.797 M 66.094 36.159 C 60.433 37.786, 53.084 43.109, 40.655 54.585 C 34.154 60.588, 26.509 67.397, 23.667 69.715 C 17.823 74.481, 9.636 78, 4.389 78 C 1.553 78, 0.924 78.346, 1.208 79.750 C 1.499 81.185, 2.579 81.480, 7.206 81.389 C 15.323 81.229, 20.052 78.079, 37 61.547 C 54.073 44.892, 58.355 41.433, 65.040 38.893 C 70.157 36.948, 76.565 36.437, 78.712 37.801 C 79.379 38.225, 77.579 38.586, 74.712 38.603 C 64.427 38.665, 58.229 43.556, 29 74.678 C 23.277 80.771, 19.901 83.426, 14.750 85.883 C 7.489 89.346, 6.256 91, 10.935 91 C 18.822 91, 24.611 86.385, 42.536 65.807 C 58.028 48.022, 65.583 41.753, 73.044 40.493 C 78.688 39.539, 79.179 40.587, 73.641 41.768 C 62.853 44.069, 55.132 51.695, 41.072 73.935 C 33.309 86.216, 28.789 91.585, 24.250 93.915 C 21.451 95.352, 21.303 98, 24.022 98 C 26.872 98, 33.931 91.160, 37.603 84.840 C 39.310 81.903, 42.539 76.350, 44.778 72.500 C 50.761 62.213, 52.541 60.379, 48.103 69.075 C 43.342 78.404, 42.119 86.380, 44.343 93.606 C 48.127 105.901, 51.849 114.512, 53.524 114.848 C 58.032 115.753, 57.060 110.994, 49.978 97.500 C 46.089 90.088, 45.815 89.059, 46.260 83.500 C 47.025 73.947, 55.373 58.065, 63.081 51.500 C 65.036 49.835, 64.964 50.070, 62.654 52.899 C 55.408 61.772, 51.538 73.568, 52.206 84.746 C 52.790 94.529, 55.126 99.250, 63.406 107.380 C 66.834 110.746, 70.447 114.737, 71.434 116.250 C 73.373 119.219, 77 119.991, 77 117.434 C 77 114.650, 74.881 111.646, 67.523 104 C 56.702 92.755, 54.159 84.490, 57.533 71.535 C 60.793 59.019, 69.624 48.163, 78.471 45.797 C 81.793 44.908, 82.896 44.172, 82.491 43.116 C 82.184 42.315, 82.455 41.337, 83.094 40.942 C 84.784 39.898, 83.245 38, 79.410 36.398 C 75.613 34.811, 71.068 34.730, 66.094 36.159 M 137.437 68 C 137.437 82.575, 137.577 88.537, 137.747 81.250 C 137.918 73.962, 137.918 62.037, 137.747 54.750 C 137.577 47.462, 137.437 53.425, 137.437 68 M 491.185 50.872 C 491.012 59.635, 490.886 60.157, 489.250 58.890 C 487.954 57.886, 488.018 58.143, 489.500 59.882 L 491.500 62.229 491.802 57.115 C 491.969 54.302, 491.939 49.638, 491.737 46.750 C 491.507 43.457, 491.301 44.994, 491.185 50.872 M 70.566 43.898 C 69.382 44.362, 69.051 44.913, 69.712 45.322 C 70.306 45.689, 72.076 45.320, 73.646 44.501 C 75.900 43.325, 76.079 43.026, 74.500 43.076 C 73.400 43.112, 71.630 43.481, 70.566 43.898 M 169.086 46.618 C 170.414 48.333, 171.701 49.557, 171.947 49.338 C 172.193 49.119, 171.106 47.716, 169.533 46.220 L 166.672 43.500 169.086 46.618 M 142.208 55.750 L 142.415 65.500 142.745 56.288 L 143.074 47.077 151.787 46.744 L 160.500 46.411 151.250 46.206 L 142 46 142.208 55.750 M 60.936 50.265 C 58.976 52.044, 56.516 54.625, 55.469 56 C 54.422 57.375, 56.138 56.040, 59.283 53.034 C 64.500 48.047, 65.476 46.972, 64.750 47.015 C 64.612 47.023, 62.896 48.486, 60.936 50.265 M 95 50.995 C 96.813 52.173, 99 52.295, 99 51.218 C 99 50.788, 97.763 50.343, 96.250 50.228 C 94.144 50.069, 93.851 50.248, 95 50.995 M 197.750 55.706 C 198.988 55.944, 201.012 55.944, 202.250 55.706 C 203.488 55.467, 202.475 55.272, 200 55.272 C 197.525 55.272, 196.512 55.467, 197.750 55.706 M 238.750 55.656 C 240.104 55.947, 241 56.880, 241 58 C 241 59.120, 240.104 60.053, 238.750 60.344 C 236.767 60.770, 236.797 60.808, 239 60.664 C 240.956 60.536, 241.500 59.956, 241.500 58 C 241.500 56.044, 240.956 55.464, 239 55.336 C 236.797 55.192, 236.767 55.230, 238.750 55.656 M 285.250 55.689 C 286.212 55.941, 287.788 55.941, 288.750 55.689 C 289.712 55.438, 288.925 55.232, 287 55.232 C 285.075 55.232, 284.288 55.438, 285.250 55.689 M 377.250 55.689 C 378.212 55.941, 379.788 55.941, 380.750 55.689 C 381.712 55.438, 380.925 55.232, 379 55.232 C 377.075 55.232, 376.288 55.438, 377.250 55.689 M 400.762 55.707 C 402.006 55.946, 403.806 55.937, 404.762 55.687 C 405.718 55.437, 404.700 55.241, 402.500 55.252 C 400.300 55.263, 399.518 55.468, 400.762 55.707 M 436.762 55.707 C 438.006 55.946, 439.806 55.937, 440.762 55.687 C 441.718 55.437, 440.700 55.241, 438.500 55.252 C 436.300 55.263, 435.518 55.468, 436.762 55.707 M 476.762 55.707 C 478.006 55.946, 479.806 55.937, 480.762 55.687 C 481.718 55.437, 480.700 55.241, 478.500 55.252 C 476.300 55.263, 475.518 55.468, 476.762 55.707 M 224.227 75.250 L 224.453 94.500 224.748 75.817 C 225.039 57.399, 225.075 57.127, 227.272 56.703 C 229.156 56.339, 229.075 56.251, 226.750 56.136 L 224 56 224.227 75.250 M 248.227 75.250 L 248.453 94.500 248.748 75.817 C 249.039 57.399, 249.075 57.127, 251.272 56.703 C 253.156 56.339, 253.075 56.251, 250.750 56.136 L 248 56 248.227 75.250 M 332 56.692 C 333.375 56.972, 334.872 57.719, 335.326 58.351 C 335.878 59.119, 336.019 59.003, 335.749 58 C 335.522 57.154, 334.072 56.431, 332.423 56.341 C 329.906 56.205, 329.847 56.253, 332 56.692 M 352.667 56.667 C 352.300 57.033, 352.007 57.821, 352.015 58.417 C 352.025 59.137, 352.277 59.115, 352.765 58.351 C 353.169 57.719, 354.625 56.993, 356 56.737 L 358.500 56.272 355.917 56.136 C 354.496 56.061, 353.033 56.300, 352.667 56.667 M 364.750 56.706 C 366.365 57.017, 367 57.842, 367 59.629 C 367 60.998, 367.390 61.877, 367.866 61.583 C 368.342 61.289, 368.515 59.912, 368.249 58.524 C 367.870 56.538, 367.205 56.029, 365.133 56.136 C 362.778 56.258, 362.737 56.318, 364.750 56.706 M 207.921 67.249 C 207.623 69.399, 207.776 70.624, 208.279 70.121 C 208.762 69.638, 208.995 67.951, 208.798 66.372 C 208.468 63.728, 208.399 63.798, 207.921 67.249 M 413.397 80 C 413.397 87.975, 413.553 91.237, 413.743 87.250 C 413.932 83.263, 413.932 76.737, 413.743 72.750 C 413.553 68.763, 413.397 72.025, 413.397 80 M 142.211 79.250 L 142 90 151.750 89.792 L 161.500 89.585 152.285 89.255 L 143.069 88.926 142.745 78.713 L 142.422 68.500 142.211 79.250 M 367.389 81.500 C 367.390 88.650, 367.550 91.444, 367.742 87.708 C 367.935 83.973, 367.934 78.123, 367.739 74.708 C 367.545 71.294, 367.387 74.350, 367.389 81.500 M 274.300 75 C 274.300 78.025, 274.487 79.263, 274.716 77.750 C 274.945 76.237, 274.945 73.763, 274.716 72.250 C 274.487 70.737, 274.300 71.975, 274.300 75 M 390.385 82 C 390.385 88.875, 390.545 91.688, 390.740 88.250 C 390.936 84.813, 390.936 79.188, 390.740 75.750 C 390.545 72.313, 390.385 75.125, 390.385 82 M 421.310 75.500 C 421.315 78.800, 421.502 80.029, 421.725 78.232 C 421.947 76.435, 421.943 73.735, 421.715 72.232 C 421.486 70.729, 421.304 72.200, 421.310 75.500 M 454 72.973 L 454 75.945 439.750 76.252 L 425.500 76.559 440.250 76.780 L 455 77 455 73.500 C 455 71.575, 454.775 70, 454.500 70 C 454.225 70, 454 71.338, 454 72.973 M 269.272 75 C 269.272 77.475, 269.467 78.487, 269.706 77.250 C 269.944 76.013, 269.944 73.987, 269.706 72.750 C 269.467 71.513, 269.272 72.525, 269.272 75 M 491.272 75 C 491.272 77.475, 491.467 78.487, 491.706 77.250 C 491.944 76.013, 491.944 73.987, 491.706 72.750 C 491.467 71.513, 491.272 72.525, 491.272 75 M 431.750 72.740 C 435.188 72.936, 440.813 72.936, 444.250 72.740 C 447.688 72.545, 444.875 72.385, 438 72.385 C 431.125 72.385, 428.313 72.545, 431.750 72.740 M 466.232 75 C 466.232 76.925, 466.438 77.713, 466.689 76.750 C 466.941 75.787, 466.941 74.213, 466.689 73.250 C 466.438 72.287, 466.232 73.075, 466.232 75 M 208.286 78.500 C 208.294 81.250, 208.488 82.256, 208.718 80.736 C 208.947 79.216, 208.941 76.966, 208.704 75.736 C 208.467 74.506, 208.279 75.750, 208.286 78.500 M 187.384 81.442 C 187.080 82.234, 187.007 83.697, 187.223 84.692 C 187.467 85.821, 187.809 85.279, 188.134 83.250 C 188.678 79.844, 188.325 78.991, 187.384 81.442 M 213.175 85.844 C 213.032 89.390, 213.357 90.281, 214.946 90.696 C 216.017 90.976, 217.090 91.947, 217.330 92.853 C 217.627 93.969, 217.805 93.775, 217.884 92.250 C 217.967 90.649, 217.440 90, 216.057 90 C 214.499 90, 214.039 89.160, 213.732 85.750 L 213.349 81.500 213.175 85.844 M 72.449 86.468 C 71.652 88.375, 71 90.933, 71 92.152 C 71 96.286, 74.980 102.614, 81.501 108.851 C 88.837 115.865, 89.022 116.586, 85.881 125.887 C 84.318 130.515, 84.055 132.455, 84.881 133.281 C 86.405 134.805, 87.442 133.558, 89.928 127.213 C 92.384 120.946, 92.587 115.283, 90.466 112.255 C 89.622 111.050, 86.329 108.062, 83.148 105.614 C 79.695 102.957, 76.392 99.331, 74.951 96.614 C 72.452 91.903, 72.446 92.032, 75.484 84.750 C 75.934 83.671, 75.770 83, 75.056 83 C 74.419 83, 73.246 84.561, 72.449 86.468 M 271.030 84.765 C 271.014 85.460, 272.462 87.506, 274.250 89.311 C 276.038 91.116, 276.548 91.447, 275.384 90.046 C 274.220 88.646, 272.771 86.600, 272.164 85.500 C 271.557 84.400, 271.047 84.069, 271.030 84.765 M 453 84.799 C 453 85.421, 451.554 87.634, 449.787 89.715 C 446.907 93.108, 446.864 93.241, 449.379 91 C 452.543 88.180, 454.449 85.116, 453.581 84.248 C 453.261 83.928, 453 84.176, 453 84.799 M 489.872 89.692 C 489.096 90.649, 489.012 91.077, 489.679 90.677 C 490.413 90.237, 491.021 90.824, 491.292 92.235 C 491.611 93.891, 491.764 93.626, 491.864 91.250 C 492.020 87.534, 491.777 87.344, 489.872 89.692 M 193.750 90.706 C 194.988 90.944, 197.012 90.944, 198.250 90.706 C 199.488 90.467, 198.475 90.272, 196 90.272 C 193.525 90.272, 192.512 90.467, 193.750 90.706 M 284.762 90.707 C 286.006 90.946, 287.806 90.937, 288.762 90.687 C 289.718 90.437, 288.700 90.241, 286.500 90.252 C 284.300 90.263, 283.518 90.468, 284.762 90.707 M 435.750 90.706 C 436.988 90.944, 439.012 90.944, 440.250 90.706 C 441.488 90.467, 440.475 90.272, 438 90.272 C 435.525 90.272, 434.512 90.467, 435.750 90.706 M 477.250 90.689 C 478.212 90.941, 479.788 90.941, 480.750 90.689 C 481.712 90.438, 480.925 90.232, 479 90.232 C 477.075 90.232, 476.288 90.438, 477.250 90.689" stroke="none" fill="#1c7ec0" fill-rule="evenodd"/><path d="M 138 68 L 138 94 147.864 94 C 161.552 94, 167.788 92.670, 171.500 88.960 C 174.210 86.251, 174.500 85.341, 174.500 79.546 C 174.500 73.836, 174.183 72.800, 171.612 70.117 C 170.024 68.459, 167.774 66.941, 166.612 66.743 C 164.645 66.407, 164.685 66.292, 167.202 65.053 C 173.412 61.996, 174.436 52.704, 169.196 46.951 C 165.929 43.364, 159.778 42, 146.864 42 L 138 42 138 68 M 492 52.174 L 492 62.349 489.750 60.299 C 486.127 56.999, 483.446 56, 478.214 56 C 472.358 56, 467.627 58.772, 464.554 64.003 C 462.970 66.700, 462.504 69.215, 462.516 75 C 462.542 87.104, 466.132 92.349, 475.602 94.118 C 480.683 95.067, 485.768 93.506, 489.736 89.778 L 492 87.651 492 90.826 C 492 93.333, 492.420 94, 494 94 C 495.949 94, 496 93.333, 496 68 C 496 42.667, 495.949 42, 494 42 C 492.131 42, 492 42.667, 492 52.174 M 142 55.387 L 142 65 150.532 65 C 163.561 65, 168 62.393, 168 54.740 C 168 52.396, 167.211 50.607, 165.444 48.948 C 163.153 46.795, 161.806 46.506, 152.444 46.160 L 142 45.773 142 55.387 M 191.315 57.464 C 186.622 59.505, 182.760 68, 186.525 68 C 187.363 68, 188.437 66.987, 188.910 65.750 C 190.882 60.595, 196.585 58.273, 203.020 60.006 C 207.253 61.145, 209 63.323, 209 67.459 C 209 70.536, 206.992 71.497, 198.435 72.518 C 187.558 73.814, 183 77.294, 183 84.299 C 183 93.508, 194.269 97.280, 204.648 91.547 L 208.795 89.255 209.876 91.628 C 210.667 93.362, 211.769 94, 213.979 94 C 217.432 94, 218.194 91.545, 215 90.710 C 213.135 90.223, 213 89.346, 213 77.743 C 213 63.598, 212.140 60.105, 208.067 57.699 C 204.563 55.629, 195.816 55.506, 191.315 57.464 M 234.110 57.396 C 232.796 58.124, 231.124 59.796, 230.396 61.110 C 229.076 63.491, 229.071 63.488, 229.035 60.250 C 229.007 57.678, 228.582 57, 227 57 C 225.072 57, 225 57.667, 225 75.573 C 225 92.723, 225.134 94.121, 226.750 93.813 C 228.278 93.521, 228.564 91.830, 229.004 80.489 C 229.306 72.713, 230.021 66.601, 230.784 65.260 C 232.142 62.876, 236.880 60, 239.450 60 C 240.333 60, 241 59.140, 241 58 C 241 55.629, 237.803 55.349, 234.110 57.396 M 258.311 57.009 C 257.106 57.494, 255.437 59.153, 254.601 60.695 C 253.296 63.103, 253.058 63.217, 252.922 61.500 C 252.834 60.400, 252.836 58.938, 252.925 58.250 C 253.015 57.563, 252.168 57, 251.044 57 C 249.059 57, 249 57.534, 249 75.573 C 249 92.723, 249.134 94.121, 250.750 93.812 C 252.278 93.520, 252.563 91.831, 253 80.489 C 253.301 72.671, 254.009 66.608, 254.780 65.260 C 256.142 62.875, 260.882 60, 263.450 60 C 264.333 60, 265 59.140, 265 58 C 265 55.815, 262.276 55.411, 258.311 57.009 M 279.500 57.348 C 277.850 58.106, 275.730 59.592, 274.788 60.650 C 267.993 68.285, 268.682 83.855, 276.118 90.689 C 280.992 95.168, 291.241 95.450, 296.854 91.260 C 305.888 84.514, 305.795 65.416, 296.695 58.621 C 293.318 56.100, 283.754 55.392, 279.500 57.348 M 371.973 57.704 C 370.613 58.641, 368.952 60.104, 368.282 60.954 C 367.244 62.271, 367.059 62.093, 367.032 59.750 C 367.008 57.677, 366.507 57, 365 57 C 363.072 57, 363 57.667, 363 75.500 C 363 93.333, 363.072 94, 365 94 C 366.889 94, 367 93.333, 367 81.968 C 367 69.143, 367.990 65.046, 371.942 61.523 C 374.787 58.986, 381.293 58.866, 383.737 61.305 C 385.216 62.781, 385.581 65.513, 386 78.271 C 386.442 91.726, 386.702 93.516, 388.250 93.812 C 389.833 94.115, 390.001 93.067, 390.006 82.823 C 390.012 69.854, 390.985 65.302, 394.448 62.049 C 397.604 59.084, 403.964 58.753, 406.891 61.401 C 408.769 63.101, 408.973 64.585, 409.225 78.369 C 409.470 91.833, 409.690 93.511, 411.250 93.811 C 412.854 94.119, 413 92.888, 413 79.024 C 413 59.155, 411.495 56, 402.016 56 C 397.446 56, 392.605 58.096, 391.144 60.707 C 390.295 62.224, 389.856 62.058, 387.193 59.207 C 384.614 56.446, 383.520 56, 379.321 56 C 376.361 56, 373.473 56.670, 371.973 57.704 M 432.021 57.116 C 428.461 58.536, 426.071 60.945, 423.795 65.404 C 420.942 70.993, 421.502 83.101, 424.829 87.765 C 428.053 92.285, 432.370 94.269, 438.855 94.210 C 444.956 94.156, 448.070 92.417, 451.750 87.010 C 454.524 82.934, 454.566 82, 451.975 82 C 450.736 82, 449.582 82.969, 449 84.500 C 447.714 87.883, 442.323 90.992, 437.735 90.996 C 432.350 91.002, 427.085 86.051, 426.307 80.249 L 425.737 76 439.868 76 L 454 76 453.978 72.250 C 453.946 66.853, 450.689 60.391, 446.808 58.024 C 443.227 55.841, 436.285 55.415, 432.021 57.116 M 309.530 61.684 C 310.341 64.333, 312.873 72.688, 315.156 80.250 C 318.906 92.673, 319.526 94, 321.582 94 C 324.064 94, 324.035 94.076, 329.569 73.231 C 331.068 67.583, 332.472 63.139, 332.688 63.354 C 332.904 63.570, 334.824 70.366, 336.955 78.455 C 339.086 86.544, 341.059 93.392, 341.339 93.673 C 341.620 93.953, 342.671 93.909, 343.675 93.574 C 345.012 93.128, 346.941 88.493, 350.892 76.232 C 353.858 67.030, 356.483 58.938, 356.725 58.250 C 356.985 57.514, 356.327 57, 355.127 57 C 353.374 57, 352.422 59.113, 348.363 72.019 C 345.764 80.280, 343.332 86.692, 342.958 86.269 C 342.583 85.846, 341.288 81.450, 340.080 76.500 C 335.732 58.688, 335.082 57, 332.570 57 C 330.468 57, 329.972 58.168, 326.505 71.250 C 324.428 79.088, 322.424 86.082, 322.051 86.793 C 321.678 87.504, 319.330 81.204, 316.833 72.793 C 312.956 59.734, 311.983 57.454, 310.174 57.184 C 308.096 56.874, 308.084 56.959, 309.530 61.684 M 283.500 59.716 C 275.535 61.643, 271.601 74.119, 275.943 83.684 C 281.037 94.903, 296.239 92.536, 298.870 80.114 C 300.743 71.270, 297.628 62.996, 291.454 60.416 C 287.979 58.964, 286.972 58.876, 283.500 59.716 M 433.452 60.358 C 429.963 61.933, 427.218 65.660, 426.349 70.004 L 425.750 73 438.006 73 L 450.262 73 449.661 69.300 C 448.449 61.829, 440.235 57.298, 433.452 60.358 M 474.034 60.711 C 468.946 63.337, 466.488 68.222, 466.572 75.541 C 466.617 79.564, 467.270 82.649, 468.526 84.775 C 470.517 88.145, 475.320 91, 479 91 C 488.782 91, 494.893 78.329, 490.213 67.749 C 486.917 60.297, 480.361 57.445, 474.034 60.711 M 142 79.392 L 142 90 150.750 89.994 C 165.846 89.985, 170.333 87.563, 170.333 79.426 C 170.333 75.826, 169.774 74.320, 167.651 72.196 C 165.106 69.651, 164.378 69.495, 153.484 69.149 L 142 68.784 142 79.392 M 203.500 75.325 C 200.750 75.779, 197.083 76.353, 195.351 76.601 C 191.006 77.224, 187 80.590, 187 83.618 C 187 87.348, 191.202 91, 195.494 91 C 203.667 91, 209.511 85.244, 208.818 77.879 L 208.500 74.500 203.500 75.325" stroke="none" fill="#4a446e" fill-rule="evenodd"/></svg>