<svg xmlns="http://www.w3.org/2000/svg" width="1600" height="800" viewBox="0 0 1082 598" version="1.1"><path d="M 542 132.522 C 541.175 132.681, 535.775 133.600, 530 134.563 C 519.966 136.238, 516.932 137.266, 518.222 138.555 C 518.545 138.878, 524.590 138.161, 531.655 136.962 C 555.638 132.889, 568.975 135.285, 580.065 145.657 C 586.260 151.452, 589.293 157.963, 593.430 174.350 C 598.244 193.416, 602.521 199.990, 613.500 205.206 C 617.967 207.328, 618.467 207.886, 618.189 210.441 C 618.017 212.013, 616.611 215.820, 615.063 218.900 C 610.670 227.641, 610.347 230.490, 613.425 233.343 C 615.160 234.951, 616 236.775, 616 238.937 C 616 240.701, 617.174 244.148, 618.610 246.597 C 620.759 250.265, 621.107 251.803, 620.580 255.315 C 619.731 260.974, 621.711 266.348, 627.944 275.310 L 632.924 282.470 630.212 285.324 C 626.634 289.090, 624.003 290.419, 608.062 296.513 C 594.711 301.617, 591.412 303.812, 593.682 306.082 C 594.532 306.932, 598.193 306.027, 608.160 302.507 C 615.497 299.915, 623.655 296.634, 626.288 295.217 C 631.361 292.487, 639 284.962, 639 282.694 C 639 281.950, 636.588 278.228, 633.641 274.421 C 625.722 264.195, 624.676 261.749, 625.478 255.328 C 626.065 250.631, 625.819 249.368, 623.576 245.539 C 622.107 243.032, 621 239.606, 621 237.565 C 621 234.995, 620.296 233.375, 618.500 231.813 C 617.125 230.618, 616 229.167, 616 228.589 C 616 228.012, 617.557 225.017, 619.460 221.934 C 621.363 218.851, 623.469 214.275, 624.141 211.764 C 625.783 205.622, 623.953 202.905, 615.627 199.130 C 606.232 194.870, 602.980 189.947, 597.931 172.336 C 593.735 157.702, 589.861 150.104, 583.553 144.139 C 577.536 138.448, 572.380 135.595, 564.320 133.495 C 559.348 132.200, 546.554 131.642, 542 132.522 M 498.500 145.680 C 487.486 148.145, 469.892 155.922, 456.500 164.246 C 430.107 180.651, 418.520 198.878, 425.185 213.506 C 426.556 216.515, 429.695 216.480, 429.138 213.462 C 428.938 212.383, 428.713 208.125, 428.638 204 C 428.518 197.483, 428.859 195.889, 431.241 191.837 C 437.694 180.860, 453.862 167.448, 473.025 157.176 C 483.338 151.648, 487.971 149.756, 498 146.980 C 503.664 145.412, 504.038 144.440, 498.500 145.680 M 654.647 165.717 C 652.085 170.676, 651.054 176.303, 649.455 194.058 C 646.435 227.603, 642.943 235.495, 632.010 233.489 C 629.170 232.967, 628.739 233.088, 629.750 234.122 C 631.639 236.053, 637.638 235.654, 640.744 233.391 C 646.921 228.888, 648.726 221.602, 652.476 186.038 C 653.480 176.515, 654.643 170.277, 655.882 167.774 C 658.028 163.436, 656.845 161.464, 654.647 165.717 M 489.989 165.435 C 471.991 172.071, 453.097 187.155, 447.365 199.464 C 443.207 208.393, 444.814 221.030, 450.784 226.338 C 453.238 228.519, 456.339 228.192, 456.819 225.701 C 457.007 224.725, 455.733 221.701, 453.988 218.981 C 452.242 216.261, 450.576 212.256, 450.284 210.080 C 449.122 201.419, 458.841 187.615, 472.752 178.168 C 479.516 173.575, 490.481 167.625, 493.750 166.773 C 496.102 166.161, 496.921 163.948, 494.750 164.070 C 494.063 164.109, 491.920 164.723, 489.989 165.435 M 663.663 167.820 C 660.667 171.131, 658.186 180.640, 655.048 200.846 C 649.616 235.831, 645.910 243.222, 634.659 241.514 C 631.623 241.052, 630.905 241.164, 632 241.926 C 632.825 242.500, 635.352 242.976, 637.615 242.985 C 647.639 243.022, 652.356 232.845, 657.540 200 C 660.436 181.651, 662.024 175.320, 664.992 170.290 C 666.096 168.417, 667 166.686, 667 166.443 C 667 165.392, 665.181 166.143, 663.663 167.820 M 572.203 208.557 C 553.578 213.570, 534.597 226.964, 503.554 257 C 477.291 282.410, 466.874 291.006, 455.207 296.896 C 448.119 300.474, 438.753 302.919, 431.500 303.085 C 424.378 303.248, 421.500 304.235, 421.500 306.516 C 421.500 313.322, 439.827 312.204, 455.759 304.426 C 466.898 298.987, 476.362 290.830, 503 263.704 C 528.726 237.507, 542.608 225.440, 555.505 218.062 C 564.055 213.171, 576.909 209, 583.432 209 C 589.379 209, 596.971 211.472, 601.828 214.990 C 604.113 216.646, 606.463 218, 607.050 218 C 611.053 218, 598.291 209.760, 591.807 208.159 C 585.684 206.647, 578.780 206.787, 572.203 208.557 M 580 214.971 C 572.527 216.347, 564.314 219.905, 556.196 225.281 C 546.656 231.598, 520.756 256.863, 497.538 282.500 C 473.220 309.352, 459.397 320.679, 446.048 324.694 C 439.614 326.629, 437.483 328.211, 438.332 330.422 C 439.712 334.018, 452.720 331.596, 462.705 325.883 C 475.001 318.848, 484.248 310.035, 503.504 287 C 516.578 271.361, 541.283 243.953, 548.629 236.939 C 556.872 229.067, 562.866 224.870, 571.813 220.704 C 577.741 217.943, 579.521 217.590, 587.500 217.593 C 593.677 217.596, 597.676 218.115, 600.250 219.247 C 603.364 220.618, 604 220.659, 604 219.488 C 604 216.482, 588.070 213.484, 580 214.971 M 583.500 222.113 C 571.370 223.870, 557.903 232.579, 545.353 246.783 C 535.201 258.273, 527.318 269.426, 513.357 292.050 C 507.229 301.981, 500.406 312.685, 498.196 315.836 C 491.535 325.333, 481.643 335.271, 475.143 339 C 468.629 342.736, 467.285 344.434, 469.105 346.627 C 470.672 348.515, 472.384 348.355, 477.270 345.862 C 487.068 340.863, 498.105 326.847, 511.019 303 C 526.702 274.041, 537.923 257.288, 550.317 244.324 C 563.233 230.814, 575.126 224.297, 588.750 223.262 C 592.737 222.959, 596 222.326, 596 221.856 C 596 220.836, 591.704 220.925, 583.500 222.113 M 593.502 225.136 C 580.324 228.220, 564.671 240.371, 554.760 255.210 C 541.018 275.787, 535.329 294.790, 536.261 317 C 537.171 338.666, 541.770 347.586, 563.588 370 C 571.886 378.525, 580.138 387.664, 581.926 390.308 C 584.310 393.835, 585.725 395.034, 587.236 394.808 C 590.622 394.302, 591.629 391.635, 590.075 387.294 C 587.823 381.003, 583.492 375.570, 570.006 362.119 C 549.859 342.024, 545.243 333.111, 544.310 312.500 C 543.911 303.695, 544.220 299.704, 545.855 292.500 C 551.030 269.696, 560.455 252.611, 574.290 240.955 C 582.324 234.186, 587.195 231.684, 597.500 229.033 C 602.162 227.834, 604.608 226.692, 604.823 225.616 C 605.079 224.340, 604.341 224.021, 601.323 224.100 C 599.220 224.156, 595.701 224.622, 593.502 225.136 M 568.987 232.636 C 565.969 234.635, 558.985 240.832, 553.466 246.406 C 532.370 267.715, 518.347 295.432, 517.245 318 C 516.630 330.587, 517.753 335.873, 524.922 354.132 C 528.241 362.584, 532.203 373.100, 533.728 377.500 C 536.368 385.119, 536.654 385.515, 539.743 385.813 C 542.415 386.071, 543.193 385.670, 544.166 383.534 C 545.958 379.602, 543.216 372.115, 532.984 353 C 528.127 343.925, 523.419 333.942, 522.524 330.816 C 517.530 313.377, 525.333 287.150, 542.838 262.539 C 549.456 253.234, 562.558 239.925, 570.457 234.485 C 575.496 231.014, 577.252 229, 575.237 229 C 574.817 229, 572.004 230.636, 568.987 232.636 M 584.609 317.625 C 573.438 334.065, 579.053 350.455, 603.220 371.954 C 620.379 387.218, 620.841 389.345, 612.098 412.818 C 608.648 422.083, 608.170 426.744, 610.578 427.668 C 612.922 428.568, 614.109 426.719, 619.991 413 C 624.596 402.261, 625.357 399.584, 625.393 394 C 625.462 383.392, 623.093 380.087, 605 365.557 C 595.070 357.582, 587.206 349.019, 584.314 343.029 C 581.482 337.164, 581.989 329.469, 585.702 321.971 C 589.308 314.690, 588.577 311.786, 584.609 317.625 M 341.384 544.434 C 334.934 547.242, 335.159 556.915, 341.739 559.664 C 345.024 561.037, 345.713 561.030, 348.715 559.599 C 354.944 556.629, 355.466 548.475, 349.655 544.931 C 345.955 542.675, 345.490 542.647, 341.384 544.434 M 438 543.685 C 431.787 546.043, 429.931 553.707, 434.527 558.026 C 437.365 560.691, 442.820 561.224, 445.396 559.087 C 447.974 556.947, 446.200 555.978, 443.033 557.796 C 440.242 559.397, 439.984 559.379, 437.305 557.379 C 435.226 555.826, 434.500 554.434, 434.500 552 C 434.500 549.566, 435.226 548.174, 437.305 546.621 C 439.984 544.621, 440.242 544.603, 443.033 546.204 C 444.640 547.127, 446.185 547.509, 446.467 547.054 C 447.651 545.138, 441.072 542.520, 438 543.685 M 591.357 543.970 C 585.955 546.204, 584.452 553.088, 588.370 557.644 C 593.376 563.464, 603 559.751, 603 552 C 603 546.133, 596.675 541.771, 591.357 543.970 M 640.308 544.010 C 636.808 545.420, 634.680 549.479, 635.407 553.358 C 636.524 559.310, 641.633 562.016, 647.291 559.652 C 653.925 556.880, 654.048 547.172, 647.485 544.429 C 643.610 542.810, 643.327 542.794, 640.308 544.010 M 748 549.500 C 748 553.167, 748.436 556, 749 556 C 749.564 556, 750 553.167, 750 549.500 C 750 545.833, 749.564 543, 749 543 C 748.436 543, 748 545.833, 748 549.500 M 364 552 L 364 560 367.918 560 C 373.231 560, 374.819 559.250, 376.537 555.928 C 378.639 551.863, 378.372 550.219, 375.077 546.923 C 372.802 544.648, 371.250 544, 368.077 544 L 364 544 364 552 M 388 552 L 388 560 392.250 559.968 C 396.845 559.934, 399.004 558.756, 400.861 555.271 C 403.595 550.138, 398.696 544, 391.865 544 L 388 544 388 552 M 411 544.656 C 411 545.016, 412.125 546.786, 413.500 548.589 C 415.220 550.843, 416 553.136, 416 555.933 C 416 558.170, 416.450 560, 417 560 C 417.550 560, 418 558.170, 418 555.933 C 418 553.079, 418.787 550.835, 420.639 548.406 C 423.909 544.119, 422.746 542.365, 419.375 546.500 L 416.930 549.500 414.882 546.750 C 412.980 544.197, 411 543.129, 411 544.656 M 458 552 C 458 556.667, 458.417 560, 459 560 C 459.550 560, 460 558.200, 460 556 L 460 552 464 552 L 468 552 468 556 C 468 558.200, 468.450 560, 469 560 C 469.583 560, 470 556.667, 470 552 C 470 547.333, 469.583 544, 469 544 C 468.450 544, 468 545.350, 468 547 C 468 549.833, 467.778 550, 464 550 C 460.222 550, 460 549.833, 460 547 C 460 545.350, 459.550 544, 459 544 C 458.417 544, 458 547.333, 458 552 M 483.300 552 C 481.442 556.867, 480.693 560, 481.386 560 C 482.013 560, 482.970 558.987, 483.513 557.750 C 484.171 556.250, 485.522 555.400, 487.567 555.200 C 490.034 554.959, 490.861 555.399, 491.795 557.450 C 493.406 560.985, 495.263 560.807, 493.886 557.250 C 493.301 555.737, 491.930 552.138, 490.839 549.250 C 489.749 546.362, 488.293 544, 487.605 544 C 486.917 544, 484.980 547.600, 483.300 552 M 503.500 545 C 503.840 545.550, 504.991 546, 506.059 546 C 507.814 546, 508 546.746, 508 553.800 C 508 562.373, 507.171 564, 502.800 564 C 501.260 564, 500 564.450, 500 565 C 500 565.550, 501.549 566, 503.443 566 C 508.686 566, 510 563.350, 510 552.777 L 510 544 506.441 544 C 504.323 544, 503.132 544.405, 503.500 545 M 534 546 C 532.508 548.788, 534.257 551.678, 537.923 552.483 C 544.877 554.010, 544.276 558.584, 537.248 557.621 C 533.337 557.084, 532.919 557.198, 534.002 558.503 C 535.491 560.296, 542.103 560.497, 543.800 558.800 C 544.460 558.140, 545 556.860, 545 555.955 C 545 553.973, 541.918 551, 539.862 551 C 539.048 551, 537.509 550.325, 536.441 549.500 C 534.556 548.043, 534.553 547.959, 536.353 546.564 C 537.718 545.507, 538.876 545.382, 540.742 546.092 C 543.614 547.184, 545.208 546.375, 542.971 544.961 C 540.268 543.252, 535.154 543.844, 534 546 M 556.295 551.977 C 558.722 561.193, 560.102 561.879, 563.618 555.611 L 565.790 551.739 568.145 555.881 C 569.440 558.160, 571.134 559.906, 571.910 559.762 C 572.706 559.614, 574.119 556.671, 575.156 553 C 577.222 545.687, 577.399 544, 576.100 544 C 575.605 544, 574.647 546.362, 573.971 549.250 C 572.093 557.274, 571.616 557.709, 569.190 553.597 C 566.526 549.083, 564.960 549.061, 562.567 553.506 C 561.528 555.434, 560.413 556.748, 560.089 556.424 C 559.765 556.101, 558.825 553.322, 558 550.247 C 557.175 547.173, 555.975 544.485, 555.332 544.273 C 554.558 544.018, 554.882 546.610, 556.295 551.977 M 613 551.945 L 613 560 617.929 560 C 624.946 560, 628.471 555.614, 624.581 551.724 C 623.801 550.944, 623.013 548.999, 622.831 547.403 C 622.523 544.704, 622.166 544.479, 617.750 544.195 L 613 543.890 613 551.945 M 663 552 L 663 560 667.326 560 C 672.844 560, 676 557.001, 676 551.758 C 676 547.087, 672.365 544, 666.865 544 L 663 544 663 552 M 687 552 C 687 561.409, 688.769 562.833, 689.202 553.772 L 689.500 547.544 693.500 553.763 C 698.932 562.209, 700 561.920, 700 552 C 700 542.707, 698.238 541.122, 697.798 550.020 L 697.500 556.041 693.500 550.048 C 688.022 541.841, 687 542.148, 687 552 M 713 552 C 713 556.667, 713.417 560, 714 560 C 714.583 560, 715 556.667, 715 552 C 715 547.333, 714.583 544, 714 544 C 713.417 544, 713 547.333, 713 552 M 727 552 L 727 560 732 560 C 734.750 560, 737 559.550, 737 559 C 737 558.450, 735.200 558, 733 558 C 729.222 558, 729 557.833, 729 555 C 729 552.238, 729.278 552, 732.500 552 C 734.425 552, 736 551.550, 736 551 C 736 550.450, 734.425 550, 732.500 550 C 729.667 550, 729 549.619, 729 548 C 729 546.338, 729.667 546, 732.941 546 C 735.109 546, 737.160 545.550, 737.500 545 C 737.884 544.379, 736.010 544, 732.559 544 L 727 544 727 552 M 342 546.288 C 338.873 547.862, 337.898 554.841, 340.504 557.003 C 343.072 559.135, 348.059 558.645, 350.156 556.056 C 352.657 552.967, 352.474 550.383, 349.545 547.455 C 346.772 544.681, 345.563 544.494, 342 546.288 M 590.635 547.073 C 587.300 549.695, 587.231 553.322, 590.455 556.545 C 593.449 559.540, 594.951 559.613, 598.365 556.927 C 600.112 555.553, 601 553.893, 601 552 C 601 549.140, 597.156 545, 594.500 545 C 593.823 545, 592.084 545.933, 590.635 547.073 M 639.550 547.359 C 635.691 551.218, 636.650 556.156, 641.626 558.048 C 645.874 559.663, 649.956 556.680, 649.985 551.941 C 650.005 548.591, 648.144 546.265, 644.800 545.459 C 642.707 544.955, 641.528 545.381, 639.550 547.359 M 366 552 L 366 558 369 558 C 373.158 558, 376.369 554.639, 375.532 551.163 C 374.719 547.787, 372.392 546, 368.809 546 C 366.042 546, 366 546.091, 366 552 M 390 552 C 390 557.883, 390.054 558, 392.750 557.985 C 396.076 557.966, 397.331 557.202, 398.885 554.250 C 399.799 552.516, 399.799 551.484, 398.885 549.750 C 397.331 546.798, 396.076 546.034, 392.750 546.015 C 390.054 546, 390 546.117, 390 552 M 615.190 547.750 C 615.403 548.854, 616.440 549.500, 618 549.500 C 619.560 549.500, 620.597 548.854, 620.810 547.750 C 621.073 546.383, 620.459 546, 618 546 C 615.541 546, 614.927 546.383, 615.190 547.750 M 665 552 C 665 557.927, 665.034 558, 667.845 558 C 669.410 558, 671.435 557.177, 672.345 556.171 C 675.987 552.147, 673.162 546, 667.671 546 C 665.073 546, 665 546.164, 665 552 M 486.324 549.952 C 485.089 553.225, 485.454 554, 488.234 554 C 489.742 554, 489.993 553.536, 489.446 551.750 C 488.089 547.312, 487.458 546.949, 486.324 549.952 M 615.743 551.590 C 615.334 551.999, 615 553.608, 615 555.167 C 615 557.797, 615.281 558, 618.933 558 C 622.050 558, 623.003 557.564, 623.532 555.899 C 623.899 554.744, 623.802 553.402, 623.318 552.918 C 622.060 551.660, 616.626 550.708, 615.743 551.590" stroke="none" fill="#0081c6" fill-rule="evenodd"/><path d="M 298.200 457.200 C 296.481 458.919, 296.481 526.081, 298.200 527.800 C 299.013 528.613, 303.607 528.993, 312.450 528.978 C 326.771 528.954, 331.587 527.641, 337.342 522.191 C 348.347 511.768, 346.362 493.014, 333.500 485.900 C 331.300 484.683, 329.383 483.603, 329.239 483.500 C 329.096 483.396, 329.686 481.329, 330.550 478.906 C 332.684 472.923, 331.745 467.359, 327.792 462.563 C 326.064 460.467, 323.168 458.132, 321.357 457.376 C 317.165 455.624, 299.907 455.493, 298.200 457.200 M 783.250 456.662 C 782.329 457.034, 782 461.072, 782 472.013 L 782 486.859 777.750 484.509 C 768.993 479.666, 759.677 480.317, 751.792 486.324 C 740.598 494.851, 738.976 510.011, 748.144 520.426 C 755.831 529.160, 766.673 531.340, 777.002 526.229 C 779.416 525.035, 781.415 524.157, 781.445 524.279 C 781.877 526.028, 784.091 528.574, 785.405 528.833 C 789.875 529.712, 790 528.724, 790 492.578 C 790 467.328, 789.687 458.087, 788.800 457.200 C 787.571 455.971, 785.468 455.767, 783.250 456.662 M 305 473 L 305 482 311.066 482 C 318.428 482, 320.732 480.885, 322.598 476.420 C 323.841 473.444, 323.837 472.544, 322.562 469.494 C 320.817 465.318, 317.907 464, 310.435 464 L 305 464 305 473 M 368.627 482.412 C 362.680 484.618, 357.777 489.059, 354.750 494.979 C 350.216 503.847, 351.422 512.790, 358.187 520.475 C 365.714 529.027, 375.666 531.231, 385.685 526.566 L 390.870 524.152 392.458 526.576 C 394.367 529.490, 397.540 529.729, 398.965 527.066 C 399.581 525.914, 400 516.878, 400 504.721 C 400 485.709, 399.865 484.188, 398.037 482.534 C 395.737 480.452, 393.037 481.143, 392.288 484.005 C 391.639 486.490, 390.950 486.493, 386.785 484.035 C 382.260 481.366, 373.547 480.586, 368.627 482.412 M 416.571 482.571 C 415.245 483.898, 415 487.339, 415 504.637 C 415 525.574, 415.539 529, 418.835 529 C 422.559 529, 423 527.089, 423 510.935 C 423 496.601, 423.176 495.046, 425.073 492.635 C 427.823 489.138, 432.164 489.075, 434.408 492.500 C 436.250 495.312, 440.707 495.927, 441.639 493.498 C 444.273 486.635, 433.292 478.712, 426.111 482.295 C 423.751 483.472, 423.010 483.481, 421.461 482.348 C 419.105 480.625, 418.489 480.653, 416.571 482.571 M 452.557 483.223 C 450.236 486.535, 450.249 525.106, 452.571 527.429 C 453.436 528.293, 454.754 529, 455.500 529 C 456.246 529, 457.564 528.293, 458.429 527.429 C 459.728 526.129, 460 523.044, 460 509.584 C 460 495.088, 460.200 493.129, 461.829 491.655 C 464.562 489.181, 468.487 489.568, 470.408 492.500 C 473.677 497.488, 479.933 494.584, 477.831 489.054 C 475.451 482.797, 468.699 479.845, 462.596 482.395 C 459.589 483.652, 458.959 483.656, 457.937 482.424 C 456.243 480.383, 454.348 480.664, 452.557 483.223 M 501.826 481.923 C 493.106 484.738, 485.808 492.178, 484.398 499.690 C 482.399 510.349, 486.510 519.947, 495.438 525.467 C 499.704 528.105, 501.276 528.500, 507.500 528.500 C 513.721 528.500, 515.297 528.104, 519.552 525.474 C 528.747 519.789, 533.314 507.541, 529.992 497.475 C 528.423 492.720, 522.760 486.428, 517.750 483.872 C 513.280 481.592, 505.720 480.667, 501.826 481.923 M 538.200 482.200 C 536.085 484.315, 536.840 487.114, 545.088 507.711 C 556.075 535.152, 557.003 535.331, 566.060 511.750 C 568.965 504.188, 571.626 498, 571.973 498 C 572.321 498, 575.281 504.600, 578.553 512.667 C 584.588 527.551, 586.581 530.385, 589.651 528.448 C 590.559 527.876, 595.021 517.990, 599.567 506.481 C 608.037 485.033, 608.447 482.876, 604.351 481.305 C 601.690 480.283, 599.432 484.141, 593.992 499 C 591.072 506.975, 588.417 513.814, 588.092 514.198 C 587.766 514.582, 584.837 507.695, 581.582 498.893 C 572.854 475.292, 571.303 475.296, 562.544 498.940 C 559.136 508.140, 556.288 514.478, 555.885 513.758 C 555.497 513.066, 552.654 505.770, 549.567 497.545 C 546.480 489.319, 543.402 482.239, 542.727 481.810 C 540.978 480.699, 539.580 480.820, 538.200 482.200 M 618.103 482.376 C 617.304 483.338, 617.042 490.307, 617.230 505.518 C 617.471 524.983, 617.685 527.400, 619.250 528.387 C 620.524 529.190, 621.476 529.190, 622.750 528.389 C 624.262 527.439, 624.568 525.100, 625 511.222 C 625.476 495.934, 625.617 495.030, 627.924 492.578 C 631.231 489.062, 637.096 489.005, 640.545 492.455 C 642.940 494.849, 643 495.287, 643 510.383 C 643 523.117, 643.278 526.135, 644.571 527.429 C 645.436 528.293, 646.754 529, 647.500 529 C 648.246 529, 649.564 528.293, 650.429 527.429 C 651.722 526.135, 652 523.117, 652 510.383 C 652 495.287, 652.060 494.849, 654.455 492.455 C 657.904 489.005, 663.769 489.062, 667.076 492.578 C 669.395 495.043, 669.514 495.836, 669.824 510.814 C 670.152 526.702, 670.691 529, 674.087 529 C 677.295 529, 678.001 525.610, 677.978 510.316 C 677.949 490.853, 676.145 486.466, 666.515 482.442 C 661.579 480.379, 655.754 481.188, 651.350 484.546 C 647.407 487.554, 647.447 487.554, 643.929 484.594 C 640.093 481.366, 634.449 480.511, 629.113 482.349 C 625.478 483.601, 624.787 483.610, 624.326 482.406 C 623.634 480.603, 619.590 480.584, 618.103 482.376 M 703.627 482.408 C 686.834 488.653, 681.980 510.184, 694.658 522.191 C 703.341 530.413, 717.199 531.154, 725.527 523.842 C 729.134 520.675, 729.854 518.254, 727.800 516.200 C 726.028 514.428, 724.389 514.714, 720.119 517.540 C 714.503 521.256, 710.055 521.689, 704.602 519.049 C 700.137 516.888, 696 511.878, 696 508.632 C 696 507.182, 698.048 507, 714.378 507 C 735.271 507, 735.660 506.865, 734.502 500.010 C 733.490 494.021, 728.335 487.010, 722.903 484.235 C 717.104 481.273, 708.797 480.486, 703.627 482.408 M 305 505.389 L 305 521 314.250 520.978 C 325.341 520.952, 330.591 519.015, 333.845 513.750 C 336.644 509.222, 336.734 501.716, 334.044 497.304 C 330.602 491.660, 327.797 490.559, 315.808 490.149 L 305 489.779 305 505.389 M 368.411 491.891 C 360.977 496.424, 358.496 503.811, 361.855 511.406 C 365.302 519.197, 373.544 522.592, 381.570 519.526 C 393.226 515.075, 394.538 498.567, 383.759 491.995 C 379.560 489.435, 372.518 489.387, 368.411 491.891 M 498.999 492.250 C 489.648 498.633, 489.783 511.339, 499.275 518.372 C 503.106 521.210, 511.880 521.227, 515.663 518.402 C 525.179 511.298, 525.179 497.982, 515.663 492.101 C 510.945 489.185, 503.391 489.253, 498.999 492.250 M 703.102 492.161 C 701.234 493.448, 699.041 495.512, 698.230 496.750 L 696.756 499 710.878 499 C 718.645 499, 725 498.638, 725 498.196 C 725 497.754, 723.430 495.871, 721.511 494.011 C 718.537 491.128, 717.173 490.570, 712.261 490.226 C 707.450 489.890, 705.939 490.209, 703.102 492.161 M 757.952 492.253 C 750.710 497.133, 748.562 506.320, 752.988 513.480 C 755.435 517.441, 761.554 520.956, 766 520.956 C 767.375 520.956, 770.343 520.119, 772.595 519.096 C 787.133 512.494, 782.035 490, 766 490 C 762.775 490, 760.244 490.709, 757.952 492.253" stroke="none" fill="#e8e9e9" fill-rule="evenodd"/><path d="M 0 299.001 L 0 598.002 541.250 597.751 L 1082.500 597.500 1082.752 298.750 L 1083.003 0 541.502 0 L 0 0 0 299.001 M 0.493 299.500 C 0.493 463.950, 0.609 531.076, 0.750 448.669 C 0.891 366.262, 0.891 231.712, 0.750 149.669 C 0.609 67.626, 0.493 135.050, 0.493 299.500 M 542 132.522 C 541.175 132.681, 535.775 133.600, 530 134.563 C 519.966 136.238, 516.932 137.266, 518.222 138.555 C 518.545 138.878, 524.590 138.161, 531.655 136.962 C 555.638 132.889, 568.975 135.285, 580.065 145.657 C 586.260 151.452, 589.293 157.963, 593.430 174.350 C 598.244 193.416, 602.521 199.990, 613.500 205.206 C 617.967 207.328, 618.467 207.886, 618.189 210.441 C 618.017 212.013, 616.611 215.820, 615.063 218.900 C 610.670 227.641, 610.347 230.490, 613.425 233.343 C 615.160 234.951, 616 236.775, 616 238.937 C 616 240.701, 617.174 244.148, 618.610 246.597 C 620.759 250.265, 621.107 251.803, 620.580 255.315 C 619.731 260.974, 621.711 266.348, 627.944 275.310 L 632.924 282.470 630.212 285.324 C 626.634 289.090, 624.003 290.419, 608.062 296.513 C 594.711 301.617, 591.412 303.812, 593.682 306.082 C 594.532 306.932, 598.193 306.027, 608.160 302.507 C 615.497 299.915, 623.655 296.634, 626.288 295.217 C 631.361 292.487, 639 284.962, 639 282.694 C 639 281.950, 636.588 278.228, 633.641 274.421 C 625.722 264.195, 624.676 261.749, 625.478 255.328 C 626.065 250.631, 625.819 249.368, 623.576 245.539 C 622.107 243.032, 621 239.606, 621 237.565 C 621 234.995, 620.296 233.375, 618.500 231.813 C 617.125 230.618, 616 229.167, 616 228.589 C 616 228.012, 617.557 225.017, 619.460 221.934 C 621.363 218.851, 623.469 214.275, 624.141 211.764 C 625.783 205.622, 623.953 202.905, 615.627 199.130 C 606.232 194.870, 602.980 189.947, 597.931 172.336 C 593.735 157.702, 589.861 150.104, 583.553 144.139 C 577.536 138.448, 572.380 135.595, 564.320 133.495 C 559.348 132.200, 546.554 131.642, 542 132.522 M 498.500 145.680 C 487.486 148.145, 469.892 155.922, 456.500 164.246 C 430.107 180.651, 418.520 198.878, 425.185 213.506 C 426.556 216.515, 429.695 216.480, 429.138 213.462 C 428.938 212.383, 428.713 208.125, 428.638 204 C 428.518 197.483, 428.859 195.889, 431.241 191.837 C 437.694 180.860, 453.862 167.448, 473.025 157.176 C 483.338 151.648, 487.971 149.756, 498 146.980 C 503.664 145.412, 504.038 144.440, 498.500 145.680 M 654.647 165.717 C 652.085 170.676, 651.054 176.303, 649.455 194.058 C 646.435 227.603, 642.943 235.495, 632.010 233.489 C 629.170 232.967, 628.739 233.088, 629.750 234.122 C 631.639 236.053, 637.638 235.654, 640.744 233.391 C 646.921 228.888, 648.726 221.602, 652.476 186.038 C 653.480 176.515, 654.643 170.277, 655.882 167.774 C 658.028 163.436, 656.845 161.464, 654.647 165.717 M 489.989 165.435 C 471.991 172.071, 453.097 187.155, 447.365 199.464 C 443.207 208.393, 444.814 221.030, 450.784 226.338 C 453.238 228.519, 456.339 228.192, 456.819 225.701 C 457.007 224.725, 455.733 221.701, 453.988 218.981 C 452.242 216.261, 450.576 212.256, 450.284 210.080 C 449.122 201.419, 458.841 187.615, 472.752 178.168 C 479.516 173.575, 490.481 167.625, 493.750 166.773 C 496.102 166.161, 496.921 163.948, 494.750 164.070 C 494.063 164.109, 491.920 164.723, 489.989 165.435 M 663.663 167.820 C 660.667 171.131, 658.186 180.640, 655.048 200.846 C 649.616 235.831, 645.910 243.222, 634.659 241.514 C 631.623 241.052, 630.905 241.164, 632 241.926 C 632.825 242.500, 635.352 242.976, 637.615 242.985 C 647.639 243.022, 652.356 232.845, 657.540 200 C 660.436 181.651, 662.024 175.320, 664.992 170.290 C 666.096 168.417, 667 166.686, 667 166.443 C 667 165.392, 665.181 166.143, 663.663 167.820 M 572.203 208.557 C 553.578 213.570, 534.597 226.964, 503.554 257 C 477.291 282.410, 466.874 291.006, 455.207 296.896 C 448.119 300.474, 438.753 302.919, 431.500 303.085 C 424.378 303.248, 421.500 304.235, 421.500 306.516 C 421.500 313.322, 439.827 312.204, 455.759 304.426 C 466.898 298.987, 476.362 290.830, 503 263.704 C 528.726 237.507, 542.608 225.440, 555.505 218.062 C 564.055 213.171, 576.909 209, 583.432 209 C 589.379 209, 596.971 211.472, 601.828 214.990 C 604.113 216.646, 606.463 218, 607.050 218 C 611.053 218, 598.291 209.760, 591.807 208.159 C 585.684 206.647, 578.780 206.787, 572.203 208.557 M 580 214.971 C 572.527 216.347, 564.314 219.905, 556.196 225.281 C 546.656 231.598, 520.756 256.863, 497.538 282.500 C 473.220 309.352, 459.397 320.679, 446.048 324.694 C 439.614 326.629, 437.483 328.211, 438.332 330.422 C 439.712 334.018, 452.720 331.596, 462.705 325.883 C 475.001 318.848, 484.248 310.035, 503.504 287 C 516.578 271.361, 541.283 243.953, 548.629 236.939 C 556.872 229.067, 562.866 224.870, 571.813 220.704 C 577.741 217.943, 579.521 217.590, 587.500 217.593 C 593.677 217.596, 597.676 218.115, 600.250 219.247 C 603.364 220.618, 604 220.659, 604 219.488 C 604 216.482, 588.070 213.484, 580 214.971 M 583.500 222.113 C 571.370 223.870, 557.903 232.579, 545.353 246.783 C 535.201 258.273, 527.318 269.426, 513.357 292.050 C 507.229 301.981, 500.406 312.685, 498.196 315.836 C 491.535 325.333, 481.643 335.271, 475.143 339 C 468.629 342.736, 467.285 344.434, 469.105 346.627 C 470.672 348.515, 472.384 348.355, 477.270 345.862 C 487.068 340.863, 498.105 326.847, 511.019 303 C 526.702 274.041, 537.923 257.288, 550.317 244.324 C 563.233 230.814, 575.126 224.297, 588.750 223.262 C 592.737 222.959, 596 222.326, 596 221.856 C 596 220.836, 591.704 220.925, 583.500 222.113 M 593.502 225.136 C 580.324 228.220, 564.671 240.371, 554.760 255.210 C 541.018 275.787, 535.329 294.790, 536.261 317 C 537.171 338.666, 541.770 347.586, 563.588 370 C 571.886 378.525, 580.138 387.664, 581.926 390.308 C 584.310 393.835, 585.725 395.034, 587.236 394.808 C 590.622 394.302, 591.629 391.635, 590.075 387.294 C 587.823 381.003, 583.492 375.570, 570.006 362.119 C 549.859 342.024, 545.243 333.111, 544.310 312.500 C 543.911 303.695, 544.220 299.704, 545.855 292.500 C 551.030 269.696, 560.455 252.611, 574.290 240.955 C 582.324 234.186, 587.195 231.684, 597.500 229.033 C 602.162 227.834, 604.608 226.692, 604.823 225.616 C 605.079 224.340, 604.341 224.021, 601.323 224.100 C 599.220 224.156, 595.701 224.622, 593.502 225.136 M 568.987 232.636 C 565.969 234.635, 558.985 240.832, 553.466 246.406 C 532.370 267.715, 518.347 295.432, 517.245 318 C 516.630 330.587, 517.753 335.873, 524.922 354.132 C 528.241 362.584, 532.203 373.100, 533.728 377.500 C 536.368 385.119, 536.654 385.515, 539.743 385.813 C 542.415 386.071, 543.193 385.670, 544.166 383.534 C 545.958 379.602, 543.216 372.115, 532.984 353 C 528.127 343.925, 523.419 333.942, 522.524 330.816 C 517.530 313.377, 525.333 287.150, 542.838 262.539 C 549.456 253.234, 562.558 239.925, 570.457 234.485 C 575.496 231.014, 577.252 229, 575.237 229 C 574.817 229, 572.004 230.636, 568.987 232.636 M 584.609 317.625 C 573.438 334.065, 579.053 350.455, 603.220 371.954 C 620.379 387.218, 620.841 389.345, 612.098 412.818 C 608.648 422.083, 608.170 426.744, 610.578 427.668 C 612.922 428.568, 614.109 426.719, 619.991 413 C 624.596 402.261, 625.357 399.584, 625.393 394 C 625.462 383.392, 623.093 380.087, 605 365.557 C 595.070 357.582, 587.206 349.019, 584.314 343.029 C 581.482 337.164, 581.989 329.469, 585.702 321.971 C 589.308 314.690, 588.577 311.786, 584.609 317.625 M 298.200 457.200 C 296.481 458.919, 296.481 526.081, 298.200 527.800 C 299.013 528.613, 303.607 528.993, 312.450 528.978 C 326.771 528.954, 331.587 527.641, 337.342 522.191 C 348.347 511.768, 346.362 493.014, 333.500 485.900 C 331.300 484.683, 329.383 483.603, 329.239 483.500 C 329.096 483.396, 329.686 481.329, 330.550 478.906 C 332.684 472.923, 331.745 467.359, 327.792 462.563 C 326.064 460.467, 323.168 458.132, 321.357 457.376 C 317.165 455.624, 299.907 455.493, 298.200 457.200 M 783.250 456.662 C 782.329 457.034, 782 461.072, 782 472.013 L 782 486.859 777.750 484.509 C 768.993 479.666, 759.677 480.317, 751.792 486.324 C 740.598 494.851, 738.976 510.011, 748.144 520.426 C 755.831 529.160, 766.673 531.340, 777.002 526.229 C 779.416 525.035, 781.415 524.157, 781.445 524.279 C 781.877 526.028, 784.091 528.574, 785.405 528.833 C 789.875 529.712, 790 528.724, 790 492.578 C 790 467.328, 789.687 458.087, 788.800 457.200 C 787.571 455.971, 785.468 455.767, 783.250 456.662 M 305 473 L 305 482 311.066 482 C 318.428 482, 320.732 480.885, 322.598 476.420 C 323.841 473.444, 323.837 472.544, 322.562 469.494 C 320.817 465.318, 317.907 464, 310.435 464 L 305 464 305 473 M 368.627 482.412 C 362.680 484.618, 357.777 489.059, 354.750 494.979 C 350.216 503.847, 351.422 512.790, 358.187 520.475 C 365.714 529.027, 375.666 531.231, 385.685 526.566 L 390.870 524.152 392.458 526.576 C 394.367 529.490, 397.540 529.729, 398.965 527.066 C 399.581 525.914, 400 516.878, 400 504.721 C 400 485.709, 399.865 484.188, 398.037 482.534 C 395.737 480.452, 393.037 481.143, 392.288 484.005 C 391.639 486.490, 390.950 486.493, 386.785 484.035 C 382.260 481.366, 373.547 480.586, 368.627 482.412 M 416.571 482.571 C 415.245 483.898, 415 487.339, 415 504.637 C 415 525.574, 415.539 529, 418.835 529 C 422.559 529, 423 527.089, 423 510.935 C 423 496.601, 423.176 495.046, 425.073 492.635 C 427.823 489.138, 432.164 489.075, 434.408 492.500 C 436.250 495.312, 440.707 495.927, 441.639 493.498 C 444.273 486.635, 433.292 478.712, 426.111 482.295 C 423.751 483.472, 423.010 483.481, 421.461 482.348 C 419.105 480.625, 418.489 480.653, 416.571 482.571 M 452.557 483.223 C 450.236 486.535, 450.249 525.106, 452.571 527.429 C 453.436 528.293, 454.754 529, 455.500 529 C 456.246 529, 457.564 528.293, 458.429 527.429 C 459.728 526.129, 460 523.044, 460 509.584 C 460 495.088, 460.200 493.129, 461.829 491.655 C 464.562 489.181, 468.487 489.568, 470.408 492.500 C 473.677 497.488, 479.933 494.584, 477.831 489.054 C 475.451 482.797, 468.699 479.845, 462.596 482.395 C 459.589 483.652, 458.959 483.656, 457.937 482.424 C 456.243 480.383, 454.348 480.664, 452.557 483.223 M 501.826 481.923 C 493.106 484.738, 485.808 492.178, 484.398 499.690 C 482.399 510.349, 486.510 519.947, 495.438 525.467 C 499.704 528.105, 501.276 528.500, 507.500 528.500 C 513.721 528.500, 515.297 528.104, 519.552 525.474 C 528.747 519.789, 533.314 507.541, 529.992 497.475 C 528.423 492.720, 522.760 486.428, 517.750 483.872 C 513.280 481.592, 505.720 480.667, 501.826 481.923 M 538.200 482.200 C 536.085 484.315, 536.840 487.114, 545.088 507.711 C 556.075 535.152, 557.003 535.331, 566.060 511.750 C 568.965 504.188, 571.626 498, 571.973 498 C 572.321 498, 575.281 504.600, 578.553 512.667 C 584.588 527.551, 586.581 530.385, 589.651 528.448 C 590.559 527.876, 595.021 517.990, 599.567 506.481 C 608.037 485.033, 608.447 482.876, 604.351 481.305 C 601.690 480.283, 599.432 484.141, 593.992 499 C 591.072 506.975, 588.417 513.814, 588.092 514.198 C 587.766 514.582, 584.837 507.695, 581.582 498.893 C 572.854 475.292, 571.303 475.296, 562.544 498.940 C 559.136 508.140, 556.288 514.478, 555.885 513.758 C 555.497 513.066, 552.654 505.770, 549.567 497.545 C 546.480 489.319, 543.402 482.239, 542.727 481.810 C 540.978 480.699, 539.580 480.820, 538.200 482.200 M 618.103 482.376 C 617.304 483.338, 617.042 490.307, 617.230 505.518 C 617.471 524.983, 617.685 527.400, 619.250 528.387 C 620.524 529.190, 621.476 529.190, 622.750 528.389 C 624.262 527.439, 624.568 525.100, 625 511.222 C 625.476 495.934, 625.617 495.030, 627.924 492.578 C 631.231 489.062, 637.096 489.005, 640.545 492.455 C 642.940 494.849, 643 495.287, 643 510.383 C 643 523.117, 643.278 526.135, 644.571 527.429 C 645.436 528.293, 646.754 529, 647.500 529 C 648.246 529, 649.564 528.293, 650.429 527.429 C 651.722 526.135, 652 523.117, 652 510.383 C 652 495.287, 652.060 494.849, 654.455 492.455 C 657.904 489.005, 663.769 489.062, 667.076 492.578 C 669.395 495.043, 669.514 495.836, 669.824 510.814 C 670.152 526.702, 670.691 529, 674.087 529 C 677.295 529, 678.001 525.610, 677.978 510.316 C 677.949 490.853, 676.145 486.466, 666.515 482.442 C 661.579 480.379, 655.754 481.188, 651.350 484.546 C 647.407 487.554, 647.447 487.554, 643.929 484.594 C 640.093 481.366, 634.449 480.511, 629.113 482.349 C 625.478 483.601, 624.787 483.610, 624.326 482.406 C 623.634 480.603, 619.590 480.584, 618.103 482.376 M 703.627 482.408 C 686.834 488.653, 681.980 510.184, 694.658 522.191 C 703.341 530.413, 717.199 531.154, 725.527 523.842 C 729.134 520.675, 729.854 518.254, 727.800 516.200 C 726.028 514.428, 724.389 514.714, 720.119 517.540 C 714.503 521.256, 710.055 521.689, 704.602 519.049 C 700.137 516.888, 696 511.878, 696 508.632 C 696 507.182, 698.048 507, 714.378 507 C 735.271 507, 735.660 506.865, 734.502 500.010 C 733.490 494.021, 728.335 487.010, 722.903 484.235 C 717.104 481.273, 708.797 480.486, 703.627 482.408 M 305 505.389 L 305 521 314.250 520.978 C 325.341 520.952, 330.591 519.015, 333.845 513.750 C 336.644 509.222, 336.734 501.716, 334.044 497.304 C 330.602 491.660, 327.797 490.559, 315.808 490.149 L 305 489.779 305 505.389 M 368.411 491.891 C 360.977 496.424, 358.496 503.811, 361.855 511.406 C 365.302 519.197, 373.544 522.592, 381.570 519.526 C 393.226 515.075, 394.538 498.567, 383.759 491.995 C 379.560 489.435, 372.518 489.387, 368.411 491.891 M 498.999 492.250 C 489.648 498.633, 489.783 511.339, 499.275 518.372 C 503.106 521.210, 511.880 521.227, 515.663 518.402 C 525.179 511.298, 525.179 497.982, 515.663 492.101 C 510.945 489.185, 503.391 489.253, 498.999 492.250 M 703.102 492.161 C 701.234 493.448, 699.041 495.512, 698.230 496.750 L 696.756 499 710.878 499 C 718.645 499, 725 498.638, 725 498.196 C 725 497.754, 723.430 495.871, 721.511 494.011 C 718.537 491.128, 717.173 490.570, 712.261 490.226 C 707.450 489.890, 705.939 490.209, 703.102 492.161 M 757.952 492.253 C 750.710 497.133, 748.562 506.320, 752.988 513.480 C 755.435 517.441, 761.554 520.956, 766 520.956 C 767.375 520.956, 770.343 520.119, 772.595 519.096 C 787.133 512.494, 782.035 490, 766 490 C 762.775 490, 760.244 490.709, 757.952 492.253 M 341.384 544.434 C 334.934 547.242, 335.159 556.915, 341.739 559.664 C 345.024 561.037, 345.713 561.030, 348.715 559.599 C 354.944 556.629, 355.466 548.475, 349.655 544.931 C 345.955 542.675, 345.490 542.647, 341.384 544.434 M 438 543.685 C 431.787 546.043, 429.931 553.707, 434.527 558.026 C 437.365 560.691, 442.820 561.224, 445.396 559.087 C 447.974 556.947, 446.200 555.978, 443.033 557.796 C 440.242 559.397, 439.984 559.379, 437.305 557.379 C 435.226 555.826, 434.500 554.434, 434.500 552 C 434.500 549.566, 435.226 548.174, 437.305 546.621 C 439.984 544.621, 440.242 544.603, 443.033 546.204 C 444.640 547.127, 446.185 547.509, 446.467 547.054 C 447.651 545.138, 441.072 542.520, 438 543.685 M 591.357 543.970 C 585.955 546.204, 584.452 553.088, 588.370 557.644 C 593.376 563.464, 603 559.751, 603 552 C 603 546.133, 596.675 541.771, 591.357 543.970 M 640.308 544.010 C 636.808 545.420, 634.680 549.479, 635.407 553.358 C 636.524 559.310, 641.633 562.016, 647.291 559.652 C 653.925 556.880, 654.048 547.172, 647.485 544.429 C 643.610 542.810, 643.327 542.794, 640.308 544.010 M 748 549.500 C 748 553.167, 748.436 556, 749 556 C 749.564 556, 750 553.167, 750 549.500 C 750 545.833, 749.564 543, 749 543 C 748.436 543, 748 545.833, 748 549.500 M 364 552 L 364 560 367.918 560 C 373.231 560, 374.819 559.250, 376.537 555.928 C 378.639 551.863, 378.372 550.219, 375.077 546.923 C 372.802 544.648, 371.250 544, 368.077 544 L 364 544 364 552 M 388 552 L 388 560 392.250 559.968 C 396.845 559.934, 399.004 558.756, 400.861 555.271 C 403.595 550.138, 398.696 544, 391.865 544 L 388 544 388 552 M 411 544.656 C 411 545.016, 412.125 546.786, 413.500 548.589 C 415.220 550.843, 416 553.136, 416 555.933 C 416 558.170, 416.450 560, 417 560 C 417.550 560, 418 558.170, 418 555.933 C 418 553.079, 418.787 550.835, 420.639 548.406 C 423.909 544.119, 422.746 542.365, 419.375 546.500 L 416.930 549.500 414.882 546.750 C 412.980 544.197, 411 543.129, 411 544.656 M 458 552 C 458 556.667, 458.417 560, 459 560 C 459.550 560, 460 558.200, 460 556 L 460 552 464 552 L 468 552 468 556 C 468 558.200, 468.450 560, 469 560 C 469.583 560, 470 556.667, 470 552 C 470 547.333, 469.583 544, 469 544 C 468.450 544, 468 545.350, 468 547 C 468 549.833, 467.778 550, 464 550 C 460.222 550, 460 549.833, 460 547 C 460 545.350, 459.550 544, 459 544 C 458.417 544, 458 547.333, 458 552 M 483.300 552 C 481.442 556.867, 480.693 560, 481.386 560 C 482.013 560, 482.970 558.987, 483.513 557.750 C 484.171 556.250, 485.522 555.400, 487.567 555.200 C 490.034 554.959, 490.861 555.399, 491.795 557.450 C 493.406 560.985, 495.263 560.807, 493.886 557.250 C 493.301 555.737, 491.930 552.138, 490.839 549.250 C 489.749 546.362, 488.293 544, 487.605 544 C 486.917 544, 484.980 547.600, 483.300 552 M 503.500 545 C 503.840 545.550, 504.991 546, 506.059 546 C 507.814 546, 508 546.746, 508 553.800 C 508 562.373, 507.171 564, 502.800 564 C 501.260 564, 500 564.450, 500 565 C 500 565.550, 501.549 566, 503.443 566 C 508.686 566, 510 563.350, 510 552.777 L 510 544 506.441 544 C 504.323 544, 503.132 544.405, 503.500 545 M 534 546 C 532.508 548.788, 534.257 551.678, 537.923 552.483 C 544.877 554.010, 544.276 558.584, 537.248 557.621 C 533.337 557.084, 532.919 557.198, 534.002 558.503 C 535.491 560.296, 542.103 560.497, 543.800 558.800 C 544.460 558.140, 545 556.860, 545 555.955 C 545 553.973, 541.918 551, 539.862 551 C 539.048 551, 537.509 550.325, 536.441 549.500 C 534.556 548.043, 534.553 547.959, 536.353 546.564 C 537.718 545.507, 538.876 545.382, 540.742 546.092 C 543.614 547.184, 545.208 546.375, 542.971 544.961 C 540.268 543.252, 535.154 543.844, 534 546 M 556.295 551.977 C 558.722 561.193, 560.102 561.879, 563.618 555.611 L 565.790 551.739 568.145 555.881 C 569.440 558.160, 571.134 559.906, 571.910 559.762 C 572.706 559.614, 574.119 556.671, 575.156 553 C 577.222 545.687, 577.399 544, 576.100 544 C 575.605 544, 574.647 546.362, 573.971 549.250 C 572.093 557.274, 571.616 557.709, 569.190 553.597 C 566.526 549.083, 564.960 549.061, 562.567 553.506 C 561.528 555.434, 560.413 556.748, 560.089 556.424 C 559.765 556.101, 558.825 553.322, 558 550.247 C 557.175 547.173, 555.975 544.485, 555.332 544.273 C 554.558 544.018, 554.882 546.610, 556.295 551.977 M 613 551.945 L 613 560 617.929 560 C 624.946 560, 628.471 555.614, 624.581 551.724 C 623.801 550.944, 623.013 548.999, 622.831 547.403 C 622.523 544.704, 622.166 544.479, 617.750 544.195 L 613 543.890 613 551.945 M 663 552 L 663 560 667.326 560 C 672.844 560, 676 557.001, 676 551.758 C 676 547.087, 672.365 544, 666.865 544 L 663 544 663 552 M 687 552 C 687 561.409, 688.769 562.833, 689.202 553.772 L 689.500 547.544 693.500 553.763 C 698.932 562.209, 700 561.920, 700 552 C 700 542.707, 698.238 541.122, 697.798 550.020 L 697.500 556.041 693.500 550.048 C 688.022 541.841, 687 542.148, 687 552 M 713 552 C 713 556.667, 713.417 560, 714 560 C 714.583 560, 715 556.667, 715 552 C 715 547.333, 714.583 544, 714 544 C 713.417 544, 713 547.333, 713 552 M 727 552 L 727 560 732 560 C 734.750 560, 737 559.550, 737 559 C 737 558.450, 735.200 558, 733 558 C 729.222 558, 729 557.833, 729 555 C 729 552.238, 729.278 552, 732.500 552 C 734.425 552, 736 551.550, 736 551 C 736 550.450, 734.425 550, 732.500 550 C 729.667 550, 729 549.619, 729 548 C 729 546.338, 729.667 546, 732.941 546 C 735.109 546, 737.160 545.550, 737.500 545 C 737.884 544.379, 736.010 544, 732.559 544 L 727 544 727 552 M 342 546.288 C 338.873 547.862, 337.898 554.841, 340.504 557.003 C 343.072 559.135, 348.059 558.645, 350.156 556.056 C 352.657 552.967, 352.474 550.383, 349.545 547.455 C 346.772 544.681, 345.563 544.494, 342 546.288 M 590.635 547.073 C 587.300 549.695, 587.231 553.322, 590.455 556.545 C 593.449 559.540, 594.951 559.613, 598.365 556.927 C 600.112 555.553, 601 553.893, 601 552 C 601 549.140, 597.156 545, 594.500 545 C 593.823 545, 592.084 545.933, 590.635 547.073 M 639.550 547.359 C 635.691 551.218, 636.650 556.156, 641.626 558.048 C 645.874 559.663, 649.956 556.680, 649.985 551.941 C 650.005 548.591, 648.144 546.265, 644.800 545.459 C 642.707 544.955, 641.528 545.381, 639.550 547.359 M 366 552 L 366 558 369 558 C 373.158 558, 376.369 554.639, 375.532 551.163 C 374.719 547.787, 372.392 546, 368.809 546 C 366.042 546, 366 546.091, 366 552 M 390 552 C 390 557.883, 390.054 558, 392.750 557.985 C 396.076 557.966, 397.331 557.202, 398.885 554.250 C 399.799 552.516, 399.799 551.484, 398.885 549.750 C 397.331 546.798, 396.076 546.034, 392.750 546.015 C 390.054 546, 390 546.117, 390 552 M 615.190 547.750 C 615.403 548.854, 616.440 549.500, 618 549.500 C 619.560 549.500, 620.597 548.854, 620.810 547.750 C 621.073 546.383, 620.459 546, 618 546 C 615.541 546, 614.927 546.383, 615.190 547.750 M 665 552 C 665 557.927, 665.034 558, 667.845 558 C 669.410 558, 671.435 557.177, 672.345 556.171 C 675.987 552.147, 673.162 546, 667.671 546 C 665.073 546, 665 546.164, 665 552 M 486.324 549.952 C 485.089 553.225, 485.454 554, 488.234 554 C 489.742 554, 489.993 553.536, 489.446 551.750 C 488.089 547.312, 487.458 546.949, 486.324 549.952 M 615.743 551.590 C 615.334 551.999, 615 553.608, 615 555.167 C 615 557.797, 615.281 558, 618.933 558 C 622.050 558, 623.003 557.564, 623.532 555.899 C 623.899 554.744, 623.802 553.402, 623.318 552.918 C 622.060 551.660, 616.626 550.708, 615.743 551.590" stroke="none" fill="#48515a" fill-rule="evenodd"/></svg>